<svg xmlns="http://www.w3.org/2000/svg" width="512" height="79.49" viewBox="0 0 512 79.49"><defs><style>.a{fill:#fff;}</style></defs><path class="a" d="M38.58,15.07a22,22,0,0,1,7.68,13.65H31.14a7.93,7.93,0,0,0-2.75-4.67,8.12,8.12,0,0,0-5.26-1.67,7.63,7.63,0,0,0-6.18,3c-1.62,2-2.42,4.86-2.42,8.64s.8,6.67,2.42,8.65a7.63,7.63,0,0,0,6.18,3,8.18,8.18,0,0,0,5.26-1.67,7.93,7.93,0,0,0,2.75-4.68H46.26A22.09,22.09,0,0,1,38.58,52.9q-6.11,5-15.12,5A25.08,25.08,0,0,1,11.31,55,20.56,20.56,0,0,1,3,46.67,25.67,25.67,0,0,1,0,34,26.09,26.09,0,0,1,3,21.25,20.37,20.37,0,0,1,11.27,13,25.29,25.29,0,0,1,23.46,10.1,23.19,23.19,0,0,1,38.58,15.07Z"/><path class="a" d="M80.57,12.52a14.59,14.59,0,0,1,5.68,6.6V10.69h14.2V57.28H86.25V48.85a14.52,14.52,0,0,1-5.68,6.59,16.81,16.81,0,0,1-9.18,2.42A18.86,18.86,0,0,1,61.08,55a19.63,19.63,0,0,1-7.18-8.31A28.65,28.65,0,0,1,51.27,34,28.65,28.65,0,0,1,53.9,21.25,19.7,19.7,0,0,1,61.08,13,18.86,18.86,0,0,1,71.39,10.1,16.89,16.89,0,0,1,80.57,12.52Zm-12,13.11q-2.79,3-2.79,8.35t2.79,8.35a10.48,10.48,0,0,0,14.78-.08A11.63,11.63,0,0,0,86.25,34a11.59,11.59,0,0,0-2.88-8.3,10.54,10.54,0,0,0-14.78-.05Z"/><path class="a" d="M184.19,15.49q4.94,5.3,4.93,14.74V57.28H174.93V31.9A9.53,9.53,0,0,0,172.55,25a8.61,8.61,0,0,0-6.48-2.47,8.8,8.8,0,0,0-6.72,2.63q-2.46,2.64-2.46,7.39V57.28H142.61V31.9A9.6,9.6,0,0,0,140.27,25a8.44,8.44,0,0,0-6.43-2.47,9,9,0,0,0-6.76,2.59q-2.51,2.6-2.5,7.43V57.28H110.3V10.69h14.28v7.93a13.85,13.85,0,0,1,5.63-6.18,17.13,17.13,0,0,1,8.9-2.25,18,18,0,0,1,9.43,2.46,15.41,15.41,0,0,1,6.18,7.06,18.66,18.66,0,0,1,6.64-6.94,17.48,17.48,0,0,1,9.31-2.58Q179.27,10.19,184.19,15.49Z"/><path class="a" d="M238,13a19.84,19.84,0,0,1,7.18,8.27A28.78,28.78,0,0,1,247.82,34a28.79,28.79,0,0,1-2.63,12.69A19.77,19.77,0,0,1,238,55a18.88,18.88,0,0,1-10.31,2.88,16.82,16.82,0,0,1-9.19-2.42,14,14,0,0,1-5.59-6.59V79.49H198.64V10.69h14.28v8.43a14.11,14.11,0,0,1,5.59-6.6,16.9,16.9,0,0,1,9.19-2.42A18.88,18.88,0,0,1,238,13Zm-22.3,12.7a11.59,11.59,0,0,0-2.88,8.3,11.63,11.63,0,0,0,2.88,8.27,10.48,10.48,0,0,0,14.78.08q2.81-3,2.8-8.35t-2.8-8.35a10.54,10.54,0,0,0-14.78.05Z"/><path class="a" d="M289.44,13a21.1,21.1,0,0,1,8.6,8.31A24.93,24.93,0,0,1,301.17,34,24.88,24.88,0,0,1,298,46.67a21.1,21.1,0,0,1-8.6,8.31A26.19,26.19,0,0,1,277,57.86,26.47,26.47,0,0,1,264.6,55,21.08,21.08,0,0,1,256,46.67,24.88,24.88,0,0,1,252.83,34,24.93,24.93,0,0,1,256,21.29,21.08,21.08,0,0,1,264.6,13,26.47,26.47,0,0,1,277,10.1,26.19,26.19,0,0,1,289.44,13ZM270.15,25.42q-2.79,3-2.79,8.56t2.79,8.52A9.16,9.16,0,0,0,277,45.42a9,9,0,0,0,6.85-2.92c1.84-2,2.75-4.79,2.75-8.52s-.91-6.58-2.75-8.56a9,9,0,0,0-6.85-3A9.12,9.12,0,0,0,270.15,25.42Z"/><path class="a" d="M336.62,14.9a17.11,17.11,0,0,1,5.72,10.9h-7.27a10.48,10.48,0,0,0-3.38-6.72A11,11,0,0,0,324,16.45a9.52,9.52,0,0,0-6.39,2,6.63,6.63,0,0,0-2.3,5.3,5.48,5.48,0,0,0,1.55,4.05,9.93,9.93,0,0,0,3.84,2.34,63.13,63.13,0,0,0,6.3,1.71,63.16,63.16,0,0,1,8.23,2.38,12.85,12.85,0,0,1,5.34,3.88,10.92,10.92,0,0,1,2.21,7.19,11.28,11.28,0,0,1-4.21,9.1q-4.21,3.49-11.23,3.5-8.19,0-13.36-3.92A15.66,15.66,0,0,1,307.85,43h7.35a9.55,9.55,0,0,0,3.63,6.76,13.08,13.08,0,0,0,8.48,2.59,8.82,8.82,0,0,0,6.13-2,6.76,6.76,0,0,0,2.22-5.26,5.76,5.76,0,0,0-1.59-4.26,10.48,10.48,0,0,0-3.92-2.42,56.85,56.85,0,0,0-6.43-1.75,62.39,62.39,0,0,1-8.14-2.34,12.43,12.43,0,0,1-5.18-3.72,10.4,10.4,0,0,1-2.13-6.89,11.54,11.54,0,0,1,4.26-9.31q4.26-3.54,11.6-3.55C329.31,10.85,333.47,12.21,336.62,14.9Z"/><path class="a" d="M374.82,50.6v6.68h-5.68q-7,0-10.48-3.34T355.2,42.75V18h-6.85v-6.6h6.85V0h7.68V11.44h11.85V18H362.88V42.92q0,4.42,1.62,6t5.64,1.63Z"/><path class="a" d="M416.69,13.69a20.28,20.28,0,0,1,8.18,8.19,25.34,25.34,0,0,1,3,12.52,25.1,25.1,0,0,1-3,12.48A20.28,20.28,0,0,1,416.69,55a26,26,0,0,1-23.63,0,20.56,20.56,0,0,1-8.22-8.14,24.8,24.8,0,0,1-3-12.48,25,25,0,0,1,3-12.52,20.56,20.56,0,0,1,8.22-8.19,26,26,0,0,1,23.63,0Zm-19.37,5.68a13.89,13.89,0,0,0-5.6,5.64,19,19,0,0,0-2.12,9.39,18.79,18.79,0,0,0,2.12,9.31,13.89,13.89,0,0,0,5.6,5.64,16.51,16.51,0,0,0,15.11,0,13.89,13.89,0,0,0,5.6-5.64,18.9,18.9,0,0,0,2.12-9.31A19.06,19.06,0,0,0,418,25a13.89,13.89,0,0,0-5.6-5.64,16.43,16.43,0,0,0-15.11,0Z"/><path class="a" d="M452,13.32a19.52,19.52,0,0,1,10.35-2.63V19H460a16.24,16.24,0,0,0-10.52,3.3q-4.09,3.3-4.09,10.9V57.28h-7.6V11.44h7.6v9.27A16.76,16.76,0,0,1,452,13.32Z"/><path class="a" d="M511.67,36H475q.25,7.84,4.47,11.77a14.56,14.56,0,0,0,10.31,3.92A15,15,0,0,0,499,48.89a11.63,11.63,0,0,0,4.55-7.48h8.1a19.18,19.18,0,0,1-11.19,14.37,24.8,24.8,0,0,1-10.36,2.08A23.56,23.56,0,0,1,478.43,55a20,20,0,0,1-8-8.14,25.73,25.73,0,0,1-2.88-12.48,26,26,0,0,1,2.88-12.52,20,20,0,0,1,8-8.19,23.67,23.67,0,0,1,11.69-2.84,23.09,23.09,0,0,1,11.65,2.84,19.61,19.61,0,0,1,7.6,7.6A21.41,21.41,0,0,1,512,31.81,22.92,22.92,0,0,1,511.67,36Zm-9-12.19a12.25,12.25,0,0,0-5.26-5.1A16.08,16.08,0,0,0,490.12,17a15,15,0,0,0-10.52,3.89q-4.26,3.87-4.59,11.39h29.31A15.55,15.55,0,0,0,502.65,23.8Z"/></svg>