<svg xmlns="http://www.w3.org/2000/svg" width="512" height="512" viewBox="0 0 512 512"><defs><style>.a{fill:#f1ffc1;}.b{fill:#569200;}.c{fill:#fff;}</style></defs><rect class="a" width="512" height="512" rx="115.2"/><rect class="b" x="64" y="64" width="384" height="384" rx="64"/><path class="c" d="M186.65,324.53c.23,10.1,6,15.74,15.65,15.74H340.64c3.44,0,4.8.74,4.82,2.63s-1.4,2.72-4.77,2.72h-22.5c3.37,4.83,4.46,9.8,2.71,15.12a14.87,14.87,0,0,1-6.2,7.95,15.32,15.32,0,0,1-18.77-1.53c-5.93-5.4-6.56-12.36-1.8-21.34H234.34c3,4.35,4.32,9,2.89,14a15.22,15.22,0,0,1-5.72,8.31,15.42,15.42,0,0,1-19.23-.7c-6.11-5.17-6.85-12.31-2.06-21.84-2.28,0-4.41-.1-6.53,0-11.77.67-20.83-6.35-22.47-19.25-2.91-22.93-6.33-45.79-9.53-68.69q-5.08-36.43-10.17-72.88c-.93-6.66-3.21-8.56-10-8.45-.57,0-1.14.08-1.68.12-.83,5-1.84,5.87-6.94,5.87-6.27,0-12.53,0-18.8,0-5.3,0-9-3.67-9-8.66s3.71-8.45,8.9-8.47c6.35,0,12.7,0,19.05,0,5,0,6,.91,6.75,6,1.52,0,3.09,0,4.66,0,6,.25,10.77,4.11,11.72,10.06,1.65,10.3,3,20.65,4.46,31,.33,2.31.66,4.62,1,7.13h31.36l-6.54-4.91c-5.35-4-8.06-9.21-7.11-16.06a2.79,2.79,0,0,0-1-2c-2.21-1.92-4.52-3.71-6.8-5.54s-2.87-3.36-1.56-4.73c1.76-1.82,3.28-.69,4.78.55,2.26,1.86,4.55,3.66,6.68,5.37l4.1-4.44c-1.66-2.06-3.62-4.53-5.61-7-1.19-1.46-1.8-3-.06-4.35s3.07-.35,4.23,1.11c2.18,2.74,4.4,5.44,6.77,8.13-1.72-5.11-.36-9,4.9-12.32a25.53,25.53,0,0,1-2.87-2.17c-4.21-4.27-4.51-10.25-.79-14.42s9.78-4.54,14.59-.66c.19.15.4.28,1.07.76,0-2.69-.1-5,0-7.39a8.75,8.75,0,0,1,17.5.27c.06,2.34,0,4.67,0,7.44,4.36-3.13,8.56-3.46,13,.34,0-1.81,0-3.18,0-4.55.14-3.47,2.25-5.6,5.72-5.61q15.42-.06,30.83,0c3.65,0,5.68,2.14,5.71,5.82a22.18,22.18,0,0,1-.15,4c-1,5.5,1.43,9.85,4.76,14.34,1.32-3.19,2.56-6.2,3.81-9.21,1-2.31,1.89-4.63,2.91-6.91a16,16,0,0,1,20.86-8.6,15.78,15.78,0,0,1,8.8,20.73c-6,14.93-12.25,29.76-18.39,44.63-1,2.37-1.93,4.75-3.06,7.55H314c6.69,0,13.37,0,20,0,7.47,0,11.48,4,11.48,11.44q0,34.58,0,69.16c0,14.45-9.74,24.27-24.19,24.32-19.79.07-39.59,0-59.39,0H186.65Zm130-134.59L322.86,175l-5-2.15c-1.51-.66-2.28-1.81-1.67-3.4s2-2.08,3.7-1.43,3.21,1.27,5.05,2c.79-2.06,1.62-3.88,2.17-5.78a10.57,10.57,0,0,0-6-12.6c-4.83-2.16-10.9-.61-13.33,4.07-2.68,5.13-4.68,10.62-7,16.13,1.75.74,3.18,1.37,4.64,1.95,1.69.67,2.76,1.82,2,3.66s-2.27,2-4,1.27c-1.52-.64-3-1.26-4.65-1.92-2.11,5.06-4.12,9.89-6.21,14.89,1.64.71,3.15,1.39,4.68,2s2.63,1.66,2,3.45-2.21,2.09-3.91,1.44c-1.53-.58-3.05-1.24-4.8-1.95-3.14,7.61-6.21,15-9.47,22.89h19.67c4.17,0,4.68-.46,5.34-5-1.58-.67-3.2-1.32-4.77-2.06s-2.19-1.89-1.43-3.48a2.47,2.47,0,0,1,3.54-1.29c1.61.66,3.23,1.3,5.07,2,2.06-5,4.09-9.86,6.19-14.93-1.72-.73-3.24-1.39-4.77-2s-2.46-1.83-1.84-3.54,2.15-1.95,3.73-1.37S314.84,189.18,316.69,189.94Zm23.28,96V258.22H299v27.71Zm-40.92-61v27.77h41.06c0-8,.08-15.82-.05-23.65,0-2.45-2.12-4.06-4.82-4.1-3.83-.06-7.67,0-11.51,0Zm-85.77.14H172.63c.05.87,0,1.61.13,2.34,1.09,7.68,2.28,15.34,3.24,23,.24,1.93.86,2.46,2.76,2.45,10.76-.09,21.53,0,32.3,0,.72,0,1.44-.1,2.22-.16ZM339.74,291.4H299v27.69c8.66,0,17.18.37,25.65-.11a16.25,16.25,0,0,0,15-13.68C340.33,300.85,339.74,296.18,339.74,291.4ZM230,210.78c1.93-1.47,2.34-3.41,2.31-5.74-.12-8,0-16-.09-24a5.29,5.29,0,0,1,1.74-4.13c4.29-4.4,8.41-9,12.91-13.79a23.4,23.4,0,0,1-2-1.62c-2.34-2.2-3.66-2.23-6,0a32.7,32.7,0,0,1-3.59,3.48c-1,.69-2.57,1.43-3.43,1.06s-1.52-2.07-1.57-3.21c-.19-4.08,0-8.18-.09-12.27,0-2.87-1.39-4.44-3.66-4.37s-3.31,1.49-3.33,4.37c0,4.09.09,8.18-.08,12.27,0,1-.78,2.5-1.55,2.77a4.15,4.15,0,0,1-3.29-.78,54.15,54.15,0,0,1-4.48-4.36c-2.47-2.38-5.5-2.53-7.54-.42s-1.9,4.9.47,7.35,4.81,4.86,7.25,7.26c1.28,1.26,2.36,2.61,1,4.32-1.28,1.55-2.72,1-4.21,0a3.14,3.14,0,0,0-4.85,1.17c-.76,1.69.34,5.32,1.91,5.63,6,1.21,9.58,5.51,12.75,10.17C223.82,200.75,226.81,205.75,230,210.78ZM218.92,225v27.66h34.34V225Zm40,27.66h34.43V225.08H258.9ZM219,258.17v27.7h34.33v-27.7Zm40,27.71h34.43V258.19H258.94ZM218.83,319h34.44V291.41H218.83Zm74.58-27.63H259V319h34.44ZM181,285.9h32.24V258.25H177.11C178.43,267.6,179.72,276.73,181,285.9Zm32.25,5.46h-31.5c1.32,9.35,2.61,18.54,3.89,27.71h27.61Zm55.45-71.18V182.55H237.64v21.5a1.63,1.63,0,0,0,.44,0c13.5-5.74,26.11,2.94,28.31,14.22C266.51,218.87,267.6,219.3,268.71,220.18Zm18.41-51.91c-4.25,4.12-8.39,8.08-12.44,12.15a3.59,3.59,0,0,0-.58,2.3q-.06,17.4,0,34.8a17.13,17.13,0,0,0,.24,2,2.64,2.64,0,0,0,1.6-1.42q8.06-19.4,16-38.8a3.38,3.38,0,0,0,0-2.52C290.5,174,288.85,171.27,287.12,168.27Zm19.25,197.6a10.15,10.15,0,0,0,10.12-10.2,10.2,10.2,0,0,0-20.4.14A10.19,10.19,0,0,0,306.37,365.87Zm-84.06-20.15a9.83,9.83,0,0,0-10.1,10.11,10.13,10.13,0,0,0,20.25,0A9.85,9.85,0,0,0,222.31,345.72Zm57.7-179c.23.08,0-.06-.2-.06q-13.24,0-26.51,0a2.17,2.17,0,0,0-1.41.32c-3.19,3.44-6.32,6.92-9.28,10.19,8.51,0,17.58,0,26.65,0a2.34,2.34,0,0,0,1.59-.53C274,173.33,277,170,280,166.74Zm5.18-14.17h-31.3v8.59h31.3Zm-24.45,67c.11-.44.21-.6.18-.75-.87-5.79-6.76-10.82-13.27-11.35-6.13-.49-13,3.78-14.69,9.19-.66,2.09-.09,2.9,2.17,2.91,6.33,0,12.66,0,19,0Zm-60.51-9.17,13.91-13.93c-2.71-4.32-6.86-6.39-11.22-5.52a10.34,10.34,0,0,0-8.19,8.13C193.85,203.64,195.78,207.64,200.23,210.41Zm27.89,9-9.91-18.1-12.82,12.8C211.19,220.64,219.19,219.84,228.12,219.38Zm-84-49c-7,0-13.75-.06-20.49,0a3,3,0,0,0-3.18,3.4c0,2.17,1.32,3.16,3.33,3.26s4,0,6,0h14.34Z"/></svg>