<svg xmlns="http://www.w3.org/2000/svg" width="511.99" height="512" viewBox="0 0 511.99 512"><defs><style>.a{fill:#569200;}</style></defs><path class="a" d="M158.94,408.28c.51,22.45,13.27,35,34.77,35q153.7,0,307.42,0c7.65,0,10.68,1.65,10.72,5.84s-3.12,6.05-10.61,6.05h-50c7.5,10.73,9.92,21.76,6,33.6a33.17,33.17,0,0,1-13.77,17.67A34.08,34.08,0,0,1,401.77,503c-13.17-12-14.56-27.45-4-47.41H264.91c6.72,9.67,9.6,19.91,6.42,31.19a33.91,33.91,0,0,1-12.71,18.46,34.28,34.28,0,0,1-42.74-1.57c-13.57-11.49-15.21-27.36-4.57-48.52-5.07,0-9.8-.23-14.5,0-26.15,1.48-46.3-14.11-49.94-42.77-6.46-51-14.07-101.77-21.17-152.65q-11.31-81-22.61-162C101,83,96,78.8,80.92,79.05c-1.28,0-2.54.17-3.75.26-1.84,11.17-4.08,13-15.42,13-13.92,0-27.84.06-41.76,0C8.19,92.27-.12,84.19,0,73.09S8.24,54.32,19.79,54.27c14.11-.07,28.22,0,42.33,0,11.05,0,13.42,2,15,13.31,3.38,0,6.87-.12,10.35,0,13.31.55,23.93,9.13,26.05,22.36,3.67,22.89,6.63,45.88,9.9,68.83.73,5.14,1.48,10.28,2.29,15.85h69.68c-5.25-3.94-9.9-7.42-14.53-10.91-11.89-9-17.91-20.46-15.8-35.69.19-1.38-1-3.43-2.18-4.45-4.9-4.25-10-8.23-15.1-12.3s-6.38-7.48-3.47-10.5c3.91-4.06,7.29-1.54,10.63,1.21,5,4.12,10.11,8.12,14.85,11.92l9.09-9.87c-3.67-4.56-8-10-12.46-15.47-2.64-3.24-4-6.68-.14-9.67s6.83-.78,9.41,2.47c4.84,6.08,9.77,12.08,15,18.06-3.82-11.34-.79-20.1,10.9-27.37-2.38-1.78-4.63-3-6.38-4.82-9.35-9.49-10-22.78-1.76-32C202,25.7,215.22,25.1,225.92,33.7c.42.34.88.64,2.38,1.71,0-6-.23-11.22,0-16.42.59-11,9.53-19.36,20.08-19S267,8.72,267.25,19.58c.12,5.19,0,10.38,0,16.52,9.69-6.94,19-7.69,28.87.77,0-4-.09-7.07,0-10.11.3-7.72,5-12.45,12.72-12.48q34.25-.13,68.5,0c8.1,0,12.61,4.76,12.69,13a48.75,48.75,0,0,1-.34,8.89C387.57,48.33,392.92,58,400.31,68c2.93-7.09,5.69-13.78,8.47-20.45,2.13-5.13,4.2-10.3,6.46-15.38,8.2-18.33,28-26.46,46.36-19.08a35.05,35.05,0,0,1,19.57,46.05c-13.32,33.19-27.23,66.13-40.89,99.18-2.17,5.26-4.27,10.54-6.8,16.79h8.42c14.85,0,29.7,0,44.55,0,16.59,0,25.5,8.9,25.51,25.43q0,76.85,0,153.7c0,32.11-21.64,53.92-53.74,54-44,.15-88,0-132,0H158.94Zm289-299.07c4.66-11.28,9.1-22,13.69-33.15-3.93-1.71-7.47-3.23-11-4.78-3.37-1.47-5.08-4-3.72-7.55,1.45-3.77,4.53-4.62,8.23-3.19s7.13,2.84,11.22,4.46c1.74-4.58,3.61-8.61,4.81-12.84,3.27-11.39-2.47-23.1-13.43-28-10.73-4.8-24.22-1.35-29.63,9-5.95,11.42-10.4,23.62-15.67,35.85,3.89,1.64,7.08,3,10.31,4.33,3.77,1.5,6.14,4,4.51,8.14s-5.05,4.41-8.83,2.81c-3.35-1.42-6.73-2.78-10.32-4.25-4.68,11.24-9.16,22-13.79,33.09,3.65,1.58,7,3.08,10.39,4.51s5.85,3.68,4.41,7.67c-1.52,4.21-4.91,4.64-8.69,3.2-3.42-1.31-6.78-2.75-10.67-4.34-7,16.9-13.81,33.41-21,50.88h43.69c9.28,0,10.42-1.05,11.88-11.1-3.5-1.5-7.11-2.93-10.61-4.59-3.28-1.56-4.85-4.19-3.18-7.71,1.59-3.35,4.34-4.34,7.88-2.88s7.18,2.88,11.26,4.51c4.58-11.06,9.09-21.92,13.76-33.17-3.83-1.62-7.19-3.09-10.6-4.46-3.65-1.48-5.46-4.08-4.09-7.88,1.44-4,4.77-4.33,8.3-3S443.81,107.52,447.92,109.21Zm51.72,213.3V260.93h-91v61.58ZM408.71,186.92v61.7H500c0-17.76.18-35.16-.1-52.56-.09-5.44-4.72-9-10.72-9.1-8.53-.13-17.06,0-25.59,0Zm-190.59.3H127.78c.1,1.93.07,3.58.3,5.19,2.41,17.07,5,34.11,7.18,51.21.53,4.28,1.92,5.48,6.13,5.45,23.93-.19,47.87-.09,71.8-.11,1.59,0,3.18-.23,4.93-.37Zm281,147.44H408.61v61.55c19.24,0,38.17.82,57-.25a36.12,36.12,0,0,0,33.25-30.39C500.44,355.66,499.14,345.29,499.14,334.66ZM255.26,155.51c4.29-3.27,5.2-7.58,5.12-12.75-.27-17.8,0-35.61-.2-53.42-.05-3.87,1.19-6.43,3.87-9.19,9.53-9.77,18.69-19.9,28.68-30.64a52.14,52.14,0,0,1-4.52-3.6C283,41,280.1,41,275,46c-2.65,2.59-5,5.63-8,7.74-2.16,1.53-5.72,3.17-7.64,2.36s-3.37-4.6-3.48-7.15c-.41-9.07-.1-18.17-.19-27.25-.06-6.38-3.09-9.88-8.13-9.72s-7.37,3.31-7.41,9.72c-.06,9.08.2,18.18-.18,27.25-.1,2.21-1.73,5.57-3.43,6.17-2,.72-5.43-.3-7.33-1.75-3.65-2.79-6.62-6.45-10-9.67-5.47-5.29-12.21-5.63-16.74-.93s-4.22,10.87,1,16.32,10.7,10.81,16.12,16.14c2.84,2.79,5.24,5.79,2.12,9.59-2.84,3.44-6,2.26-9.35.06-4.26-2.83-8.94-1.53-10.78,2.6-1.68,3.74.75,11.81,4.24,12.51,13.41,2.68,21.3,12.23,28.34,22.6C241.53,133.23,248.18,144.33,255.26,155.51Zm-24.6,31.59v61.46H307V187.1Zm88.83,61.45H396V187.3h-76.5Zm-88.78,12.27v61.55H307V260.82Zm88.88,61.58h76.5V260.86h-76.5Zm-89.15,73.67H307V334.7H230.44Zm165.75-61.39H319.64v61.41h76.55Zm-249.8-12.24h71.67V261H137.74C140.67,281.77,143.53,302.07,146.39,322.44Zm71.67,12.14h-70c2.92,20.78,5.78,41.2,8.64,61.57h61.34ZM341.29,176.41V92.77h-69v47.78a4.25,4.25,0,0,0,1,0c30-12.76,58,6.53,62.9,31.59C336.4,173.5,338.83,174.44,341.29,176.41ZM382.2,61c-9.43,9.15-18.65,18-27.64,27-1.08,1.08-1.29,3.38-1.29,5.12q-.12,38.66,0,77.33a34.92,34.92,0,0,0,.54,4.41,5.86,5.86,0,0,0,3.55-3.15q17.9-43.08,35.63-86.22a7.5,7.5,0,0,0,0-5.59C389.7,73.71,386,67.71,382.2,61ZM425,500.16a22.59,22.59,0,0,0,22.51-22.66c-.1-12.55-10-22.16-22.82-22.13a22.26,22.26,0,0,0-22.53,22.44A22.64,22.64,0,0,0,425,500.16ZM238.18,455.37c-12.9,0-22.52,9.64-22.45,22.47a22.5,22.5,0,0,0,45-.09C260.78,465,251.09,455.36,238.18,455.37ZM366.41,57.64c.51.18,0-.13-.45-.13q-29.44,0-58.91,0c-1.07,0-2.53.06-3.14.71-7.08,7.63-14.05,15.38-20.62,22.64,18.92,0,39.07,0,59.22,0a5.4,5.4,0,0,0,3.54-1.18C353,72.28,359.8,64.82,366.41,57.64ZM377.9,26.16H308.35V45.25H377.9ZM323.58,175.07a6.43,6.43,0,0,0,.41-1.68c-1.93-12.85-15-24-29.51-25.2-13.61-1.11-28.79,8.4-32.62,20.42-1.48,4.64-.21,6.43,4.8,6.45,14.08,0,28.15,0,42.22,0ZM189.12,154.7l30.89-31c-6-9.61-15.22-14.21-24.91-12.28a23,23,0,0,0-18.21,18.07C174.93,139.64,179.24,148.54,189.12,154.7Zm62,19.91c-8-14.57-15.27-27.85-22-40.2-10.13,10.11-19.49,19.45-28.47,28.43C213.47,177.42,231.25,175.65,251.1,174.61ZM64.52,65.79c-15.6,0-30.57-.14-45.53.08-4.47.06-7.16,2.78-7.08,7.55s2.95,7,7.41,7.25,8.88.08,13.32.08H64.52Z"/></svg>