<svg xmlns="http://www.w3.org/2000/svg" width="512" height="115.82" viewBox="0 0 512 115.82"><defs><style>.a{fill:#f1ffc1;}.b{fill:#569200;}.c{fill:#fff;}.d{fill:#72c100;}</style></defs><rect class="a" width="115.82" height="115.82" rx="26.06"/><rect class="b" x="14.48" y="14.48" width="86.86" height="86.86" rx="14.48"/><path class="c" d="M42.22,73.41A3.27,3.27,0,0,0,45.76,77H77.05c.78,0,1.09.17,1.1.6s-.32.61-1.08.61H72a3.68,3.68,0,0,1,.61,3.42,3.38,3.38,0,0,1-1.4,1.8,3.46,3.46,0,0,1-4.25-.35c-1.34-1.22-1.48-2.79-.41-4.82H53a3.6,3.6,0,0,1,.65,3.17,3.44,3.44,0,0,1-1.29,1.88A3.49,3.49,0,0,1,48,83.12c-1.38-1.17-1.55-2.78-.47-4.94-.51,0-1,0-1.47,0A4.63,4.63,0,0,1,41,73.83c-.65-5.18-1.43-10.36-2.15-15.54q-1.16-8.24-2.3-16.48c-.21-1.51-.73-1.94-2.26-1.91l-.38,0c-.19,1.14-.42,1.33-1.57,1.33H28.08a1.93,1.93,0,0,1-2-2,1.91,1.91,0,0,1,2-1.92h4.31c1.12,0,1.36.21,1.52,1.36H35A2.69,2.69,0,0,1,37.6,41c.37,2.32.67,4.67,1,7,.07.53.15,1.05.23,1.62h7.09l-1.48-1.12a3.64,3.64,0,0,1-1.6-3.63.66.66,0,0,0-.23-.45c-.5-.43-1-.84-1.53-1.25s-.65-.76-.36-1.07.75-.16,1.09.12c.5.42,1,.83,1.51,1.21l.92-1L43,40.86c-.27-.32-.4-.67,0-1s.69-.08,1,.25c.49.62,1,1.23,1.53,1.84a2.16,2.16,0,0,1,1.11-2.79,6.11,6.11,0,0,1-.65-.49A2.31,2.31,0,1,1,49,35.28a1.78,1.78,0,0,0,.24.17c0-.61,0-1.14,0-1.67a2,2,0,0,1,4,.06c0,.53,0,1.06,0,1.69a2.13,2.13,0,0,1,2.94.07c0-.41,0-.72,0-1a1.22,1.22,0,0,1,1.29-1.27h7a1.2,1.2,0,0,1,1.29,1.32,5.54,5.54,0,0,1,0,.91,4.07,4.07,0,0,0,1.07,3.24l.86-2.08c.22-.53.43-1,.66-1.57A3.62,3.62,0,0,1,73,33.18a3.57,3.57,0,0,1,2,4.69C73.67,41.25,72.25,44.6,70.86,48c-.22.54-.43,1.08-.69,1.71h5.39a2.34,2.34,0,0,1,2.6,2.59V67.91a5.23,5.23,0,0,1-5.47,5.5c-4.48,0-9,0-13.44,0h-17ZM71.64,43,73,39.59l-1.12-.48a.57.57,0,0,1-.38-.77.58.58,0,0,1,.84-.33l1.14.46c.18-.47.37-.88.49-1.31a2.39,2.39,0,0,0-1.36-2.85,2.33,2.33,0,0,0-3,.92c-.61,1.16-1.06,2.4-1.6,3.65l1,.44c.39.15.63.41.46.83s-.51.45-.9.28l-1-.43-1.4,3.37,1.06.46c.35.15.59.37.45.78s-.5.47-.89.32-.69-.28-1.08-.44l-2.15,5.18H68c1,0,1.06-.1,1.21-1.13-.36-.15-.72-.3-1.08-.47a.54.54,0,0,1-.32-.78.56.56,0,0,1,.8-.29l1.15.46,1.4-3.38c-.39-.17-.74-.32-1.08-.45a.6.6,0,0,1-.42-.81c.15-.4.49-.44.85-.31S71.22,42.8,71.64,43ZM76.9,64.68V58.41H67.64v6.27Zm-9.25-13.8v6.28h9.29c0-1.81,0-3.58,0-5.35a1,1,0,0,0-1.1-.93c-.86,0-1.73,0-2.6,0Zm-19.4,0h-9.2c0,.19,0,.36,0,.53.25,1.73.51,3.47.73,5.21.06.44.2.56.63.55,2.43,0,4.87,0,7.3,0l.51,0Zm28.6,15H67.64v6.26c2,0,3.88.08,5.8,0a3.67,3.67,0,0,0,3.38-3.1A20.48,20.48,0,0,0,76.85,65.92ZM52,47.68a1.44,1.44,0,0,0,.52-1.3c0-1.81,0-3.62,0-5.44a1.18,1.18,0,0,1,.39-.93c1-1,1.9-2,2.92-3.12a4.87,4.87,0,0,1-.46-.37c-.53-.49-.82-.5-1.34,0a8.62,8.62,0,0,1-.81.79c-.22.15-.59.32-.78.24a1,1,0,0,1-.36-.73c0-.93,0-1.85,0-2.78,0-.65-.31-1-.82-1s-.75.34-.76,1c0,.93,0,1.85,0,2.78a.82.82,0,0,1-.35.63.93.93,0,0,1-.74-.18,13.59,13.59,0,0,1-1-1,1.14,1.14,0,0,0-1.7-.09,1.11,1.11,0,0,0,.11,1.66c.53.56,1.09,1.1,1.64,1.64.29.29.53.59.21,1s-.61.23-.95,0a.71.71,0,0,0-1.1.26c-.17.38.08,1.2.44,1.27a4.71,4.71,0,0,1,2.88,2.3C50.63,45.41,51.31,46.54,52,47.68ZM49.52,50.9v6.25h7.77V50.9Zm9,6.25h7.78V50.92H58.57Zm-9,1.25v6.27h7.76V58.4Zm9,6.27h7.78V58.4H58.58Zm-9.08,7.5h7.79V65.92H49.5Zm16.87-6.25H58.58v6.25h7.79ZM40.94,64.67h7.3V58.42H40.06Zm7.3,1.24H41.12L42,72.18h6.24Zm12.54-16.1V41.29h-7v4.87h.1a4.58,4.58,0,0,1,6.4,3.21C60.29,49.51,60.53,49.61,60.78,49.81ZM65,38.06c-1,.94-1.9,1.83-2.82,2.75a.88.88,0,0,0-.13.52v7.88a3.56,3.56,0,0,0,.06.44.61.61,0,0,0,.36-.32q1.81-4.38,3.62-8.77A.75.75,0,0,0,66,40C65.71,39.35,65.34,38.74,65,38.06Zm4.35,44.7a2.29,2.29,0,0,0,2.29-2.3,2.31,2.31,0,0,0-4.61,0A2.3,2.3,0,0,0,69.3,82.76Zm-19-4.56A2.23,2.23,0,0,0,48,80.49a2.29,2.29,0,0,0,4.58,0A2.23,2.23,0,0,0,50.29,78.2ZM63.34,37.72s0,0,0,0h-6a.53.53,0,0,0-.32.07c-.72.78-1.43,1.57-2.1,2.31h6a.51.51,0,0,0,.36-.12C62,39.21,62.67,38.45,63.34,37.72Zm1.17-3.21H57.43v2h7.08ZM59,49.67c0-.1.05-.14,0-.17a3.32,3.32,0,0,0-3-2.57A3.39,3.39,0,0,0,52.7,49c-.15.48,0,.66.49.66H59ZM45.29,47.6l3.15-3.15A2.4,2.4,0,0,0,45.9,43.2,2.33,2.33,0,0,0,44.05,45,2.4,2.4,0,0,0,45.29,47.6Zm6.31,2-2.24-4.09-2.9,2.9C47.77,49.91,49.58,49.73,51.6,49.62Zm-19-11.07c-1.59,0-3.11,0-4.63,0a.67.67,0,0,0-.72.76.69.69,0,0,0,.75.74c.45,0,.9,0,1.36,0h3.24Z"/><path class="b" d="M167.1,44.13a16,16,0,0,1,5.6,9.95h-11a5.87,5.87,0,0,0-2-3.41,5.94,5.94,0,0,0-3.83-1.22,5.54,5.54,0,0,0-4.5,2.16q-1.77,2.16-1.77,6.3t1.77,6.3a5.56,5.56,0,0,0,4.5,2.15,5.93,5.93,0,0,0,3.83-1.21,5.87,5.87,0,0,0,2-3.41h11a16.08,16.08,0,0,1-5.6,9.95,16.87,16.87,0,0,1-11,3.62,18.26,18.26,0,0,1-8.85-2.1,15.06,15.06,0,0,1-6.05-6A18.8,18.8,0,0,1,139,57.91a19,19,0,0,1,2.16-9.28,14.86,14.86,0,0,1,6.05-6,18.43,18.43,0,0,1,8.88-2.1A16.87,16.87,0,0,1,167.1,44.13Z"/><path class="b" d="M197.7,42.28a10.63,10.63,0,0,1,4.14,4.8V40.94h10.34V74.88H201.84V68.74a10.69,10.69,0,0,1-4.14,4.8A12.28,12.28,0,0,1,191,75.31a13.73,13.73,0,0,1-7.51-2.1,14.36,14.36,0,0,1-5.24-6,21.1,21.1,0,0,1-1.91-9.25,21.06,21.06,0,0,1,1.91-9.28,14.39,14.39,0,0,1,5.24-6,13.73,13.73,0,0,1,7.51-2.1A12.28,12.28,0,0,1,197.7,42.28ZM189,51.83a8.56,8.56,0,0,0-2,6.08A8.58,8.58,0,0,0,189,64a7.64,7.64,0,0,0,10.77-.06,8.47,8.47,0,0,0,2.1-6,8.44,8.44,0,0,0-2.1-6,7.1,7.1,0,0,0-5.39-2.22A7,7,0,0,0,189,51.83Z"/><path class="b" d="M273.19,44.44q3.58,3.86,3.59,10.73V74.88H266.44V56.39a6.92,6.92,0,0,0-1.74-5A6.22,6.22,0,0,0,260,49.58a6.38,6.38,0,0,0-4.9,1.91,7.55,7.55,0,0,0-1.79,5.38v18H242.89V56.39a7,7,0,0,0-1.7-5,6.13,6.13,0,0,0-4.68-1.79,6.53,6.53,0,0,0-4.93,1.88,7.46,7.46,0,0,0-1.82,5.41v18H219.35V40.94h10.41v5.78a10.08,10.08,0,0,1,4.1-4.5,12.44,12.44,0,0,1,6.48-1.65,13,13,0,0,1,6.87,1.8,11.2,11.2,0,0,1,4.5,5.14,13.64,13.64,0,0,1,4.84-5,12.7,12.7,0,0,1,6.78-1.89Q269.6,40.57,273.19,44.44Z"/><path class="b" d="M312.39,42.61a14.37,14.37,0,0,1,5.23,6,20.92,20.92,0,0,1,1.92,9.28,21,21,0,0,1-1.92,9.25,14.34,14.34,0,0,1-5.23,6,13.73,13.73,0,0,1-7.51,2.1,12.23,12.23,0,0,1-6.69-1.77,10.21,10.21,0,0,1-4.08-4.8V91.06h-10.4V40.94h10.4v6.14a10.17,10.17,0,0,1,4.08-4.8,12.23,12.23,0,0,1,6.69-1.77A13.73,13.73,0,0,1,312.39,42.61Zm-16.24,9.25a8.44,8.44,0,0,0-2.1,6,8.47,8.47,0,0,0,2.1,6,7.64,7.64,0,0,0,10.77.06,8.58,8.58,0,0,0,2-6.08,8.56,8.56,0,0,0-2-6.08,7.68,7.68,0,0,0-10.77,0Z"/><path class="b" d="M349.86,42.61a15.41,15.41,0,0,1,6.27,6,18.2,18.2,0,0,1,2.28,9.25,18.2,18.2,0,0,1-2.28,9.25,15.41,15.41,0,0,1-6.27,6,20.53,20.53,0,0,1-18.09,0,15.36,15.36,0,0,1-6.3-6,18.2,18.2,0,0,1-2.28-9.25,18.2,18.2,0,0,1,2.28-9.25,15.36,15.36,0,0,1,6.3-6,20.53,20.53,0,0,1,18.09,0Zm-14.05,9.06a8.75,8.75,0,0,0-2,6.24c0,2.72.68,4.78,2,6.2a6.67,6.67,0,0,0,5,2.13,6.58,6.58,0,0,0,5-2.13c1.34-1.42,2-3.48,2-6.2s-.66-4.8-2-6.24a6.57,6.57,0,0,0-5-2.16A6.66,6.66,0,0,0,335.81,51.67Z"/><path class="d" d="M384.23,44A12.45,12.45,0,0,1,388.4,52h-5.29a7.7,7.7,0,0,0-2.47-4.9A8,8,0,0,0,375,45.14a7,7,0,0,0-4.66,1.42,4.86,4.86,0,0,0-1.67,3.87,4,4,0,0,0,1.12,3,7.2,7.2,0,0,0,2.8,1.7,47.13,47.13,0,0,0,4.59,1.25,45.08,45.08,0,0,1,6,1.73,9.42,9.42,0,0,1,3.89,2.83,8,8,0,0,1,1.61,5.23,8.2,8.2,0,0,1-3.07,6.63,12.42,12.42,0,0,1-8.18,2.56,15.68,15.68,0,0,1-9.73-2.86,11.36,11.36,0,0,1-4.44-8h5.35a7,7,0,0,0,2.64,4.93,9.59,9.59,0,0,0,6.18,1.88,6.4,6.4,0,0,0,4.47-1.46A4.93,4.93,0,0,0,383.53,66a4.18,4.18,0,0,0-1.15-3.1,7.78,7.78,0,0,0-2.86-1.77,42.2,42.2,0,0,0-4.69-1.27,45.72,45.72,0,0,1-5.93-1.71,9.12,9.12,0,0,1-3.77-2.7,7.61,7.61,0,0,1-1.55-5,8.41,8.41,0,0,1,3.1-6.79q3.1-2.58,8.46-2.58A13.45,13.45,0,0,1,384.23,44Z"/><path class="d" d="M412.06,70v4.87h-4.14c-3.4,0-5.95-.81-7.63-2.43s-2.52-4.34-2.52-8.15v-18h-5v-4.8h5V33.15h5.59v8.34H412v4.8h-8.64V64.42c0,2.15.4,3.62,1.19,4.41s2.16,1.18,4.1,1.18Z"/><path class="d" d="M442.56,43.13a14.77,14.77,0,0,1,6,6,18.5,18.5,0,0,1,2.16,9.12,18.36,18.36,0,0,1-2.16,9.1,14.88,14.88,0,0,1-6,5.93,18.92,18.92,0,0,1-17.21,0,15.11,15.11,0,0,1-6-5.93,18.16,18.16,0,0,1-2.19-9.1,18.29,18.29,0,0,1,2.19-9.12,15,15,0,0,1,6-6,18.92,18.92,0,0,1,17.21,0Zm-14.11,4.13a10.13,10.13,0,0,0-4.07,4.11,13.78,13.78,0,0,0-1.55,6.84A13.66,13.66,0,0,0,424.38,65a10,10,0,0,0,4.07,4.1,12,12,0,0,0,11,0,10.13,10.13,0,0,0,4.08-4.1,13.77,13.77,0,0,0,1.55-6.79,13.89,13.89,0,0,0-1.55-6.84,10.22,10.22,0,0,0-4.08-4.11,12.06,12.06,0,0,0-11,0Z"/><path class="d" d="M468.26,42.85a14.38,14.38,0,0,1,7.55-1.91v6H474.1a11.83,11.83,0,0,0-7.66,2.4c-2,1.61-3,4.25-3,7.94V74.88h-5.54V41.49h5.54v6.75A12.33,12.33,0,0,1,468.26,42.85Z"/><path class="d" d="M511.76,59.37H485.05q.18,5.72,3.26,8.58a10.63,10.63,0,0,0,7.51,2.86,10.83,10.83,0,0,0,6.72-2,8.45,8.45,0,0,0,3.32-5.45h5.9a14,14,0,0,1-8.15,10.47,18.12,18.12,0,0,1-7.55,1.52,17.16,17.16,0,0,1-8.51-2.07,14.62,14.62,0,0,1-5.81-5.93,18.79,18.79,0,0,1-2.1-9.1,18.92,18.92,0,0,1,2.1-9.12,14.51,14.51,0,0,1,5.81-6,17.16,17.16,0,0,1,8.51-2.07,16.79,16.79,0,0,1,8.49,2.07,14.2,14.2,0,0,1,5.53,5.53A15.57,15.57,0,0,1,512,56.33,16.72,16.72,0,0,1,511.76,59.37Zm-6.57-8.88a8.92,8.92,0,0,0-3.84-3.71,11.66,11.66,0,0,0-5.29-1.22,10.93,10.93,0,0,0-7.66,2.83c-2.07,1.89-3.19,4.65-3.35,8.3H506.4A11.3,11.3,0,0,0,505.19,50.49Z"/></svg>